/* XPM */
static const char *MAP_XPM[] = {
"8 8 4 1",
"  c None",
"# c #202020",
"+ c #0bd80b",
". c #f0f0f0",
"++..++++",
"++..++++",
"++......",
"++......",
"++..++++",
"++..++++",
"++..++++",
"++..++++" 
};
